<svg width="36" height="28" viewBox="0 0 36 28" fill="none" xmlns="http://www.w3.org/2000/svg">
<path d="M8.47656 7.8418C8.35352 8.89453 7.96387 9.70801 7.30762 10.2822C6.65592 10.8519 5.78776 11.1367 4.70312 11.1367C3.52734 11.1367 2.58398 10.7152 1.87305 9.87207C1.16667 9.02897 0.813477 7.90104 0.813477 6.48828V5.53125C0.813477 4.60612 0.977539 3.79264 1.30566 3.09082C1.63835 2.389 2.10775 1.85124 2.71387 1.47754C3.31999 1.09928 4.02181 0.910156 4.81934 0.910156C5.87663 0.910156 6.72428 1.20638 7.3623 1.79883C8.00033 2.38672 8.37174 3.20247 8.47656 4.24609H7.15723C7.04329 3.45312 6.79492 2.87891 6.41211 2.52344C6.03385 2.16797 5.50293 1.99023 4.81934 1.99023C3.98079 1.99023 3.32227 2.30013 2.84375 2.91992C2.36979 3.53971 2.13281 4.42155 2.13281 5.56543V6.5293C2.13281 7.60938 2.3584 8.46842 2.80957 9.10645C3.26074 9.74447 3.89193 10.0635 4.70312 10.0635C5.43229 10.0635 5.99056 9.89941 6.37793 9.57129C6.76986 9.23861 7.02962 8.66211 7.15723 7.8418H8.47656ZM9.74121 7.2334C9.74121 6.50879 9.88249 5.8571 10.165 5.27832C10.4521 4.69954 10.8486 4.25293 11.3545 3.93848C11.8649 3.62402 12.446 3.4668 13.0977 3.4668C14.1048 3.4668 14.9183 3.81543 15.5381 4.5127C16.1624 5.20996 16.4746 6.13737 16.4746 7.29492V7.38379C16.4746 8.10384 16.3356 8.75098 16.0576 9.3252C15.7842 9.89486 15.39 10.3392 14.875 10.6582C14.3646 10.9772 13.7767 11.1367 13.1113 11.1367C12.1087 11.1367 11.2952 10.7881 10.6709 10.0908C10.0511 9.39355 9.74121 8.4707 9.74121 7.32227V7.2334ZM11.0127 7.38379C11.0127 8.2041 11.2018 8.86263 11.5801 9.35938C11.9629 9.85612 12.4733 10.1045 13.1113 10.1045C13.7539 10.1045 14.2643 9.85384 14.6426 9.35254C15.0208 8.84668 15.21 8.1403 15.21 7.2334C15.21 6.4222 15.0163 5.76595 14.6289 5.26465C14.2461 4.75879 13.7357 4.50586 13.0977 4.50586C12.4733 4.50586 11.9697 4.75423 11.5869 5.25098C11.2041 5.74772 11.0127 6.45866 11.0127 7.38379ZM22.3672 9.03809C22.3672 8.69629 22.2373 8.43197 21.9775 8.24512C21.7223 8.05371 21.2734 7.88965 20.6309 7.75293C19.9928 7.61621 19.4847 7.45215 19.1064 7.26074C18.7327 7.06934 18.4548 6.84147 18.2725 6.57715C18.0947 6.31283 18.0059 5.99837 18.0059 5.63379C18.0059 5.02767 18.2611 4.51497 18.7715 4.0957C19.2865 3.67643 19.9427 3.4668 20.7402 3.4668C21.5788 3.4668 22.2578 3.68327 22.7773 4.11621C23.3014 4.54915 23.5635 5.10286 23.5635 5.77734H22.292C22.292 5.43099 22.1439 5.13249 21.8477 4.88184C21.556 4.63118 21.1868 4.50586 20.7402 4.50586C20.2799 4.50586 19.9199 4.60612 19.6602 4.80664C19.4004 5.00716 19.2705 5.26921 19.2705 5.59277C19.2705 5.89811 19.3913 6.12826 19.6328 6.2832C19.8743 6.43815 20.3096 6.58626 20.9385 6.72754C21.5719 6.86882 22.0846 7.03743 22.4766 7.2334C22.8685 7.42936 23.1579 7.66634 23.3447 7.94434C23.5361 8.21777 23.6318 8.55273 23.6318 8.94922C23.6318 9.61003 23.3675 10.141 22.8389 10.542C22.3102 10.9385 21.6243 11.1367 20.7812 11.1367C20.1888 11.1367 19.6647 11.0319 19.209 10.8223C18.7533 10.6126 18.3955 10.321 18.1357 9.94727C17.8805 9.56901 17.7529 9.16113 17.7529 8.72363H19.0176C19.0404 9.14746 19.209 9.4847 19.5234 9.73535C19.8424 9.98145 20.2617 10.1045 20.7812 10.1045C21.2598 10.1045 21.6426 10.0088 21.9297 9.81738C22.2214 9.62142 22.3672 9.36165 22.3672 9.03809ZM26.9951 1.8125V3.60352H28.376V4.58105H26.9951V9.16797C26.9951 9.46419 27.0566 9.6875 27.1797 9.83789C27.3027 9.98372 27.5124 10.0566 27.8086 10.0566C27.9544 10.0566 28.1549 10.0293 28.4102 9.97461V11C28.0775 11.0911 27.7539 11.1367 27.4395 11.1367C26.8743 11.1367 26.4482 10.9658 26.1611 10.624C25.874 10.2822 25.7305 9.79688 25.7305 9.16797V4.58105H24.3838V3.60352H25.7305V1.8125H26.9951ZM34.4258 11C34.3529 10.8542 34.2936 10.5944 34.248 10.2207C33.6602 10.8314 32.9583 11.1367 32.1426 11.1367C31.4134 11.1367 30.8141 10.9316 30.3447 10.5215C29.8799 10.1068 29.6475 9.58268 29.6475 8.94922C29.6475 8.17904 29.9391 7.58203 30.5225 7.1582C31.1104 6.72982 31.9352 6.51562 32.9971 6.51562H34.2275V5.93457C34.2275 5.49251 34.0954 5.1416 33.8311 4.88184C33.5667 4.61751 33.1771 4.48535 32.6621 4.48535C32.2109 4.48535 31.8327 4.59928 31.5273 4.82715C31.222 5.05501 31.0693 5.33073 31.0693 5.6543H29.7979C29.7979 5.28516 29.9277 4.92969 30.1875 4.58789C30.4518 4.24154 30.8073 3.9681 31.2539 3.76758C31.7051 3.56706 32.1995 3.4668 32.7373 3.4668C33.5895 3.4668 34.2572 3.68099 34.7402 4.10938C35.2233 4.5332 35.474 5.11882 35.4922 5.86621V9.27051C35.4922 9.94954 35.5788 10.4896 35.752 10.8906V11H34.4258ZM32.3271 10.0361C32.7236 10.0361 33.0996 9.93359 33.4551 9.72852C33.8105 9.52344 34.068 9.25684 34.2275 8.92871V7.41113H33.2363C31.6868 7.41113 30.9121 7.86458 30.9121 8.77148C30.9121 9.16797 31.0443 9.47786 31.3086 9.70117C31.5729 9.92448 31.9124 10.0361 32.3271 10.0361ZM4.80566 22.9736H2.46777V27H1.14844V17.0469H4.44336C5.56445 17.0469 6.42578 17.3021 7.02734 17.8125C7.63346 18.3229 7.93652 19.0658 7.93652 20.041C7.93652 20.6608 7.7679 21.2008 7.43066 21.6611C7.09798 22.1214 6.63314 22.4655 6.03613 22.6934L8.37402 26.918V27H6.96582L4.80566 22.9736ZM2.46777 21.9004H4.48438C5.13607 21.9004 5.65332 21.7318 6.03613 21.3945C6.4235 21.0573 6.61719 20.6061 6.61719 20.041C6.61719 19.4258 6.43262 18.9541 6.06348 18.626C5.69889 18.2979 5.17025 18.1315 4.47754 18.127H2.46777V21.9004ZM10.958 27H9.69336V19.6035H10.958V27ZM9.59082 17.6416C9.59082 17.4365 9.65234 17.2633 9.77539 17.1221C9.90299 16.9808 10.0898 16.9102 10.3359 16.9102C10.582 16.9102 10.7689 16.9808 10.8965 17.1221C11.0241 17.2633 11.0879 17.4365 11.0879 17.6416C11.0879 17.8467 11.0241 18.0176 10.8965 18.1543C10.7689 18.291 10.582 18.3594 10.3359 18.3594C10.0898 18.3594 9.90299 18.291 9.77539 18.1543C9.65234 18.0176 9.59082 17.8467 9.59082 17.6416ZM15.9551 26.1045C16.4062 26.1045 16.8005 25.9678 17.1377 25.6943C17.4749 25.4209 17.6618 25.0791 17.6982 24.6689H18.8945C18.8717 25.0928 18.7259 25.4961 18.457 25.8789C18.1882 26.2617 17.8281 26.5671 17.377 26.7949C16.9303 27.0228 16.4564 27.1367 15.9551 27.1367C14.9479 27.1367 14.1458 26.8018 13.5488 26.1318C12.9564 25.4574 12.6602 24.5368 12.6602 23.3701V23.1582C12.6602 22.4382 12.7923 21.7979 13.0566 21.2373C13.321 20.6768 13.6992 20.2415 14.1914 19.9316C14.6882 19.6217 15.2738 19.4668 15.9482 19.4668C16.7777 19.4668 17.4658 19.7152 18.0127 20.2119C18.5641 20.7087 18.8581 21.3535 18.8945 22.1465H17.6982C17.6618 21.668 17.4795 21.276 17.1514 20.9707C16.8278 20.6608 16.4268 20.5059 15.9482 20.5059C15.3057 20.5059 14.8066 20.7383 14.4512 21.2031C14.1003 21.6634 13.9248 22.3311 13.9248 23.2061V23.4453C13.9248 24.2975 14.1003 24.9538 14.4512 25.4141C14.8021 25.8743 15.3034 26.1045 15.9551 26.1045ZM24.8828 27C24.8099 26.8542 24.7507 26.5944 24.7051 26.2207C24.1172 26.8314 23.4154 27.1367 22.5996 27.1367C21.8704 27.1367 21.2712 26.9316 20.8018 26.5215C20.3369 26.1068 20.1045 25.5827 20.1045 24.9492C20.1045 24.179 20.3962 23.582 20.9795 23.1582C21.5674 22.7298 22.3923 22.5156 23.4541 22.5156H24.6846V21.9346C24.6846 21.4925 24.5524 21.1416 24.2881 20.8818C24.0238 20.6175 23.6341 20.4854 23.1191 20.4854C22.668 20.4854 22.2897 20.5993 21.9844 20.8271C21.679 21.055 21.5264 21.3307 21.5264 21.6543H20.2549C20.2549 21.2852 20.3848 20.9297 20.6445 20.5879C20.9089 20.2415 21.2643 19.9681 21.7109 19.7676C22.1621 19.5671 22.6566 19.4668 23.1943 19.4668C24.0465 19.4668 24.7142 19.681 25.1973 20.1094C25.6803 20.5332 25.931 21.1188 25.9492 21.8662V25.2705C25.9492 25.9495 26.0358 26.4896 26.209 26.8906V27H24.8828ZM22.7842 26.0361C23.1807 26.0361 23.5566 25.9336 23.9121 25.7285C24.2676 25.5234 24.5251 25.2568 24.6846 24.9287V23.4111H23.6934C22.1439 23.4111 21.3691 23.8646 21.3691 24.7715C21.3691 25.168 21.5013 25.4779 21.7656 25.7012C22.0299 25.9245 22.3695 26.0361 22.7842 26.0361Z" fill="black"/>
</svg>
