<svg width="639" height="602" viewBox="0 0 639 602" fill="none" xmlns="http://www.w3.org/2000/svg">
<rect width="639" height="602" fill="#E5E5E5"/>
<g id="Frame 1" clip-path="url(#clip0)">
<rect width="639" height="602" fill="white"/>
<g id="costa_rica">
<mask id="path-1-inside-1" fill="white">
<path d="M33 72.5C31.8333 70.8333 27.9 67.2 21.5 66H20.5V67.5L23.5 70.5H19.5L15.5 71L9.5 73L9 75.5L18 76L21.5 79.5L23.5 82H29L34 84L35 88.5L38 89L42.5 87.5H47L51 90H54.5L60 93.5V104L58.5 108L60 114L58.5 117.5L56 121L53 126.5L57 125L60.5 120L63.5 124L62.5 126.5L60 131.5L56 133L53 137.5L50 140L45 141L42.5 142.5H40L36.5 142L34 142.5V148L38 153L39 157.5L38 160L35 162.5L33.5 166L30.5 165.5C29.8333 165.5 28.2 165.3 27 164.5C25.8 163.7 25.8333 164.833 26 165.5L25 170L19 173V175.5L23.5 177.5L25 181.5V187.5L26 195V199.5L30.5 205L32.5 209L34 215L36.5 222.5L40 228L46.5 235.5L51 239L55.5 245L56.5 248.5L58.5 253.5L63 255.5L70 260.5L74 261.5L81 264L90 265.5L97.5 267H105L110.5 268L114.5 270L119.5 271.5L123.5 274.5L130 280.5L135.5 285.5L141.5 292L144.5 297.5L149 303L151.5 310.5L156 313.5V316L158 320L160.5 319.5L161.5 317C161.833 316 162.5 313.7 162.5 312.5C162.5 311.3 164.833 309.667 166 309V302.5L168.5 300.5L170.5 297.5L175 296.5L177 295.5L175.5 294V292C175.5 291.2 177.167 289.667 178 289L181 288L187.5 290V286C188.5 285.5 190.4 284.5 190 284.5C189.6 284.5 191.167 282.833 192 282L194 279.5L198 277.5L200 273.5L198 272.5H194L190.5 270L192 268L193 265.5L190.5 264V260.5L196.5 256.5L193 255.5L190 254.5L187.5 252L184 252.5L178 252L175.5 250L172.5 249L170.5 247.5V243.5H167.5L165 245L162.5 246L158.5 244L156 243.5L153 242.5L150 239.5L149.5 234.5L147.5 231.5L144.5 229L135 221L134.5 212.5L133.5 206L137.5 203L140 205L146.5 208L154 209L156 207H159.5L161.5 209V212.5L167.5 214L175.5 215L183.5 222L198 236.5L211.5 243.5L226 245L227.5 250L230.5 253.5L228.5 258.5L231.5 262.5L235 264L244 279.5L245.5 285L244 289.5L240 295V300.5L243 304.5L245.5 309.5L264 327.5L266 329.5L273 327.5L279 328.5L285.5 329.5H289L294 331L298.5 332.5L303.5 334L308.5 334.5L314 338H321L325 340.5L332 344L333.5 348.5L338 353L344 356.5L351 358L354.5 360.5L358 363.5H366L372.5 369L382.5 375L385.5 376L406.5 393.5V398.5H410L414 400.5L420.5 405L423 410.5L426 413L430.5 420.5V433L431.5 434.5V440.5L434.5 443.5L436.5 445L434.5 448.5L436.5 451V454.5L428 462.5V465L429 473.5L428 479L426.5 482.5L422.5 481.5H419L416 485.5V490L413.5 493L412 498.5V501.5L416 503.5L420.5 505L422.5 508L425.5 510.5L440.5 526.5L445 528L461 529L467.5 531L475 533L493.5 541.5L495 539L494 533L495.5 532L496.5 529L495.5 525.5L493.5 521.5L492.5 511.5L489 510L484 505L479.5 503.5H477L473.5 501.5L471 499.5L467.5 495.5L465 493L467.5 492V489L464 486.5L459.5 485.5L457.5 483.5V479L461 476.5L465 476L469 479L478 473.5L483 476L485 475L487 476L488 483.5L494 489H501.5L502.5 492H508L514 495.5L514.5 499.5L522 508L520.5 510V513L525.5 518L530.5 525.5L529.5 531L521.5 539V542.5L528.5 548L533.5 552.5L539.5 556.5L542 560.5L547.5 561.5L552 565L564 586L566 591L564 593V597L563 600L564.5 601.5L566.5 602L568.5 601.5V592.5L567 587L566 584.5L564.5 580.5V575.5L563 574.5H561L560 571L559.5 566.5L556.5 562.5L554 560.5L547.5 558L546 555L542 554L538.5 551L538 548L541 546H545L561 531.5L571 530L577 520V513L576 510L579 507L579.5 503.5L578 501.5L577.5 493L576 491.5L571 482L563 476.5V469H565.5L567 467L572 461L568.5 457.5V455L572 454.5L576 452H579.5L582 448.5H589L594 442.5L599 441V435L594 429.5L593 428.5L589 426L584 424.5L570 416L569 412.5L565.5 409L563 411.5L559.5 411V337H568L570 336H576L577.5 332L572.5 329.5L571.5 328L572.5 324.5L571.5 322.5L569 321L570 318.5L572.5 318V312L574 311L583.5 316H591L593.5 318L595 322.5L600.5 324.5L601 329.5L608.5 334H618.5L621 331.5V324L627 326H631V324L612.5 309L589 307L579.5 298V292L577 290.5L572.5 290L547.5 259L546.5 256.5L542 250.5L539 247V242.5L535 239.5L529.5 242L526 240L522 239.5L516.5 232.5L508.5 223L497 214.5V210L481 196V190L469 179L455.5 156.5L454 149.5L440.5 120L439.5 107L438.5 101.5L439.5 93.5L435.5 87L428.5 75.5L424 70L421.5 69L420 70L421.5 77V83.5L423 87.5V91.5L419.5 95.5L404 96.5L399 100H395L386.5 107C383.5 107 377.4 107.2 377 108C376.6 108.8 371.833 104 369.5 101.5L365 100L363.5 93.5H360.5L349 99L345 95.5L342.5 97.5L340 94.5H327L323.5 91.5L324.5 89L325.5 80.5L318 75.5H311.5L310.5 74.5L300.5 63L300 55.5L288 60L287 63L284 64.5L275.5 54.5H271.5L269 51.5L260.5 50.5L259 46L256.5 44L250.5 47.5L238 39L196 64.5L134.5 42L115.5 31C110.333 30.3333 100 29.3 100 30.5C100 32 90.5 26 86 24C82.4 22.4 78.1667 16.6667 76.5 14H67.5L52.5 38V42L55.5 43V49.5L51.5 48.5L48.5 50L43.5 46L40 49.5L41 52.5L53 59V62.5L49 64.5L50 67L47 69L41.5 67L37 69L33 67.5V72.5Z"/>
</mask>
<path d="M33 72.5C31.8333 70.8333 27.9 67.2 21.5 66H20.5V67.5L23.5 70.5H19.5L15.5 71L9.5 73L9 75.5L18 76L21.5 79.5L23.5 82H29L34 84L35 88.5L38 89L42.5 87.5H47L51 90H54.5L60 93.5V104L58.5 108L60 114L58.5 117.5L56 121L53 126.5L57 125L60.5 120L63.5 124L62.5 126.5L60 131.5L56 133L53 137.5L50 140L45 141L42.5 142.5H40L36.5 142L34 142.5V148L38 153L39 157.5L38 160L35 162.5L33.5 166L30.5 165.5C29.8333 165.5 28.2 165.3 27 164.5C25.8 163.7 25.8333 164.833 26 165.5L25 170L19 173V175.5L23.5 177.5L25 181.5V187.5L26 195V199.5L30.5 205L32.5 209L34 215L36.5 222.5L40 228L46.5 235.5L51 239L55.5 245L56.5 248.5L58.5 253.5L63 255.5L70 260.5L74 261.5L81 264L90 265.5L97.5 267H105L110.5 268L114.5 270L119.5 271.5L123.5 274.5L130 280.5L135.5 285.5L141.5 292L144.5 297.5L149 303L151.5 310.5L156 313.5V316L158 320L160.5 319.5L161.5 317C161.833 316 162.5 313.7 162.5 312.5C162.5 311.3 164.833 309.667 166 309V302.5L168.5 300.5L170.5 297.5L175 296.5L177 295.5L175.5 294V292C175.5 291.2 177.167 289.667 178 289L181 288L187.5 290V286C188.5 285.5 190.4 284.5 190 284.5C189.6 284.5 191.167 282.833 192 282L194 279.5L198 277.5L200 273.5L198 272.5H194L190.5 270L192 268L193 265.5L190.5 264V260.5L196.5 256.5L193 255.5L190 254.5L187.5 252L184 252.5L178 252L175.5 250L172.5 249L170.5 247.5V243.5H167.5L165 245L162.5 246L158.5 244L156 243.5L153 242.5L150 239.5L149.5 234.5L147.5 231.5L144.5 229L135 221L134.5 212.5L133.5 206L137.5 203L140 205L146.5 208L154 209L156 207H159.5L161.5 209V212.5L167.5 214L175.5 215L183.5 222L198 236.5L211.5 243.5L226 245L227.5 250L230.5 253.5L228.5 258.5L231.5 262.5L235 264L244 279.5L245.5 285L244 289.5L240 295V300.5L243 304.5L245.5 309.5L264 327.5L266 329.5L273 327.5L279 328.5L285.5 329.5H289L294 331L298.5 332.5L303.5 334L308.5 334.5L314 338H321L325 340.5L332 344L333.5 348.5L338 353L344 356.5L351 358L354.5 360.5L358 363.5H366L372.5 369L382.5 375L385.5 376L406.5 393.5V398.5H410L414 400.5L420.5 405L423 410.5L426 413L430.5 420.5V433L431.5 434.5V440.5L434.5 443.5L436.5 445L434.5 448.5L436.5 451V454.5L428 462.5V465L429 473.5L428 479L426.5 482.5L422.5 481.5H419L416 485.5V490L413.5 493L412 498.5V501.5L416 503.5L420.5 505L422.5 508L425.5 510.5L440.5 526.5L445 528L461 529L467.5 531L475 533L493.5 541.5L495 539L494 533L495.5 532L496.5 529L495.5 525.5L493.5 521.5L492.5 511.5L489 510L484 505L479.5 503.5H477L473.5 501.5L471 499.5L467.5 495.5L465 493L467.5 492V489L464 486.5L459.5 485.5L457.5 483.5V479L461 476.5L465 476L469 479L478 473.5L483 476L485 475L487 476L488 483.5L494 489H501.5L502.5 492H508L514 495.5L514.5 499.5L522 508L520.5 510V513L525.5 518L530.5 525.5L529.5 531L521.5 539V542.5L528.5 548L533.5 552.5L539.5 556.5L542 560.5L547.5 561.5L552 565L564 586L566 591L564 593V597L563 600L564.5 601.5L566.5 602L568.5 601.5V592.5L567 587L566 584.5L564.5 580.5V575.5L563 574.5H561L560 571L559.5 566.5L556.5 562.5L554 560.5L547.5 558L546 555L542 554L538.5 551L538 548L541 546H545L561 531.5L571 530L577 520V513L576 510L579 507L579.5 503.5L578 501.5L577.5 493L576 491.5L571 482L563 476.5V469H565.5L567 467L572 461L568.5 457.5V455L572 454.5L576 452H579.5L582 448.5H589L594 442.5L599 441V435L594 429.5L593 428.5L589 426L584 424.5L570 416L569 412.5L565.5 409L563 411.5L559.5 411V337H568L570 336H576L577.5 332L572.5 329.5L571.5 328L572.5 324.5L571.5 322.5L569 321L570 318.5L572.5 318V312L574 311L583.5 316H591L593.5 318L595 322.5L600.5 324.5L601 329.5L608.5 334H618.5L621 331.5V324L627 326H631V324L612.5 309L589 307L579.5 298V292L577 290.5L572.5 290L547.5 259L546.5 256.5L542 250.5L539 247V242.5L535 239.5L529.5 242L526 240L522 239.5L516.5 232.5L508.5 223L497 214.5V210L481 196V190L469 179L455.5 156.5L454 149.5L440.5 120L439.5 107L438.5 101.5L439.5 93.5L435.5 87L428.5 75.5L424 70L421.5 69L420 70L421.5 77V83.5L423 87.5V91.5L419.5 95.5L404 96.5L399 100H395L386.5 107C383.5 107 377.4 107.2 377 108C376.6 108.8 371.833 104 369.5 101.5L365 100L363.5 93.5H360.5L349 99L345 95.5L342.5 97.5L340 94.5H327L323.5 91.5L324.5 89L325.5 80.5L318 75.5H311.5L310.5 74.5L300.5 63L300 55.5L288 60L287 63L284 64.5L275.5 54.5H271.5L269 51.5L260.5 50.5L259 46L256.5 44L250.5 47.5L238 39L196 64.5L134.5 42L115.5 31C110.333 30.3333 100 29.3 100 30.5C100 32 90.5 26 86 24C82.4 22.4 78.1667 16.6667 76.5 14H67.5L52.5 38V42L55.5 43V49.5L51.5 48.5L48.5 50L43.5 46L40 49.5L41 52.5L53 59V62.5L49 64.5L50 67L47 69L41.5 67L37 69L33 67.5V72.5Z" stroke="black" stroke-width="2" mask="url(#path-1-inside-1)"/>
</g>
<path id="caribbean" d="M411 102L409.5 97L420 96L423.5 91V87L422 83.5V77L421.5 75L420.5 70.5L421.5 69.5L423.5 70L427.5 75L439 94L438 102L439 107L440 120L453.5 149.5L455 157L469 180L480.5 190V196.5L496.5 210.5V215L508 223.5L517 234L521.5 240L526 240.5L529.5 242.5L535 240.5L538.5 243V247.5L546 257L547 259.5L572 290.5L577 291L579 292.5V298.5L588.5 307.5L612 309.5L630.5 324V325.5H627L620.5 323V331L617.5 333.5H608.5L601.5 329L601 324L595.5 322.5L594 318L591 315.5H583.5L574 310.5L572 312V317.5L570 318L568 321L571 323L572 325L571 328L572 330L577 332.5L575.5 335.5H570L568 336.5H558.5V411L554.5 407H549L547.5 404.5L544.5 401L545.5 399.5L546 396.5L541 393.5L539 395.5L537 396.5L534 392.5L532.5 389.5L534 386.5L532.5 384L531.5 379.5L514.5 367.5L513.5 364L511.5 363L504 367.5L499 361L493 361.5L486.5 354L479 361.5H471.5L466.5 357L462.5 355L461 352.5L458.5 348.5L456.5 345L456 339L454 334.5V332L453 328.5L451 326.5V322L452.5 318.5L451 313L454 310.5L458.5 309.5L465.5 301V294.5L482.5 274V265.5L482 261.5L480 258.5V251.5L482 249.5L488 245H434L430.5 243L427.5 239.5L423 237.5L417.5 236.5L412.5 235.5L407.5 234L401.5 229.5L398 227.5H393L391.5 225L385.5 220.5L382 219L373.5 218L370 214V211L373.5 206H375.5L387.5 195L388.5 188.5L387.5 184L389.5 182L387.5 175.5L384 167.5L384.5 162L386.5 159H390.5L392 158V145L390.5 141L390 137L391.5 134L390.5 124L393.5 122L399.5 121.5L401 117L404 113L411 112L413.5 113L414 111L411.5 106L411 102Z" stroke="black"/>
<path id="northen_plains" d="M196 65L134.5 42.5L131.5 46L131 49.5L129 53L126.5 54.5L125 51.5L122 49.5L118.5 48L115 49.5L112 51L111 54.5L104.5 62H99L95.5 64V71L103.5 78L107.5 82L110.5 87.5H115L120.5 91L123 97.5L131 99L134.5 96.5L137 99L145 101.5L151.5 102L154.5 104V108L158 109H162.5L166.5 110L169.5 111.5L172.5 110L173.5 111.5L176.5 116L177.5 119.5V125.5H171.5L170.5 144.5L173.5 146.5V155L176.5 156.5L182.5 160.5H187.5H192.5H196.5L197.5 163L200 167.5L202.5 166.5H204.5L206 169L209 170.5L210.5 174L212.5 178.5L217 180L219.5 178.5L222 174L219.5 170.5V166.5L222 165L226.5 172L229 173L232.5 167.5V164.5L234.5 163L238.5 165L242 163V156.5H244.5L248.5 160.5L250.5 159.5H255.5L257 164.5L250.5 171L249.5 169H243L242 182.5L245 184.5L251.5 183.5L263 174V180L260.5 184.5L263 188.5V195L265.5 196L272 195L276.5 193.5H280H282.5L284.5 195L285.5 193.5H288L289 195H296H305L315 187L317 182.5L315.5 177L315 170.5L314 163L317 160.5V153L322 145.5L323 141L327 136.5L328.5 135L330 136.5V187L339 196L340 200.5L338 203L343 208L345 207L349 205L353 208H366L369.5 206H372.5H375.5L387.5 195L388.5 188.5L387.5 184L389.5 182.5L388.5 178.5L387.5 175L385.5 170.5L384 168V166L384.5 161.5L386.5 159H390.5L392 158V144.5L390.5 141L390 136.5L391.5 134L390.5 124L393 122L399.5 121.5L401 117L403.5 113L410.5 112L413.5 113V111L411.5 106L410.5 100.5L409.5 96.5L403.5 97.5L399.5 100.5H395.5L386.5 107.5L378.5 108L377 109L375.5 108L369.5 102L364.5 100.5L363 94H360.5L349 99.5L345 96.5L342.5 98L340 95H327L323 91.5L324 89L325 81L318 76H311.5L300 63L299 56.5L288.5 60.5L287.5 63L284 65L275.5 55H271L268.5 52L260 51L258.5 46.5L256.5 44.5L250.5 48L238 39.5L196 65Z" stroke="black"/>
<path id="guanacaste" d="M141 281.5L136.5 286L134.5 284L130.5 281.5L128 278L124 275L119.5 271.5L115 270L110.5 267.5L105.5 266.5H100H97.5H95L87 264.5H83H81L78.5 263L70.5 260.5L68.5 258.5L66 257.5L62 255.5L58 252.5L56 245.5L54 241.5L51 238L47 235.5L43.5 231.5L40 227.5L36.5 223L34.5 215.5L32.5 208.5L30.5 204.5L26 199.5L27 195L25 188V181.5L23.5 177L19 175.5V173.5L25 170L27 165L34.5 166.5L35.5 163L39 160L40 157.5L37.5 151.5L34.5 148.5V143H36.5H39H42.5L46 141.5L50 140.5L52.5 138.5L56.5 133L60.5 131L64 124L60.5 119L56.5 125.5H53.5L56.5 121L59.5 117C59.3333 116 59.3 113.9 60.5 113.5C61.7 113.1 59.6667 109.667 58.5 108L60.5 103.5V93.5L54.5 90H51L46.5 87.5H41.5L37.5 88L35.5 87.5L33 84L28.5 81.5H23L17.5 75.5H9.5L10.5 73.5L15.5 72L18.5 71L24.5 70.5L21.5 67.5L22 67L28.5 69.5L33 73.5V68L37.5 69.5L41.5 68L47.5 69.5L50 67V64.5L53.5 62.5L53 58.5L41.5 52L41 50L43.5 47L49 50L51.5 48.5L55.5 50V42.5L53 41.5V38.5L68 14.5L76.5 15L84.5 23.5L99 31.5L101 30.5L115 31.5L134.5 42.5L131 46V50L129 53L126 54.5L125 51.5L118.5 48.5L112 51.5L111 54.5L104 62H99L96 64.5V71L107 81.5L110.5 87.5L115 88L120 91.5L123 97.5L131 99.5L135 96.5L138 99.5L145.5 102H152L154.5 104V108L159 109.5H163L167 110.5L169.5 111.5L172.5 110.5L176 114.5L177.5 119V125.5H171L170.5 144.5L173.5 147V155.5L171 157.5V161.5V168.5L175 174.5L181 176L185.5 175.5L189.5 171H192L200 176L205 177.5V184L200 190L197.5 196V204.5L196 207L190 208.5L188.5 215.5L186.5 218L181 211.5L176.5 207L172 204.5L167 205.5L166.5 209.5H162L159 207H155.5L153 208.5L146.5 207L141 204.5L138 202.5L133 206L134.5 213L135 221.5L144.5 229.5L141 231.5L144.5 236V243.5L142 245.5H128L125 247L125.5 253.5L128 256.5L135 258.5L142 266.5L141 269L138 273L142 276L141 281.5Z" stroke="black"/>
<path id="central_valley" d="M360 338L359.5 341L356.5 339L353 337L349 335V332.5L347.5 330.5V320.5H336V317.5V313L334 310H325.5H317.5H313.5L305 308.5L301.5 306L299 308.5H296L293.5 306C292.333 306.167 289.8 306.4 289 306C288.2 305.6 287.333 307.5 287 308.5V317.5L283.5 320.5H280.5L277 318.5H267L263 315.5L259.5 308.5L255 302V297V293L257 289.5L260.5 287V283.5L258 277L255 273L257 269.5L255 266.5L249.5 265.5L244.5 266.5L242 263.5H235.5V262L237 257.5L242 253.5L245.5 252.5L250.5 248L251.5 244H257L258 241.5L257 239.5L255 235L250.5 232.5L246.5 231.5L245.5 230L245 227.5L242.5 223L240 218L239 214L239.5 201.5V196L238.5 194.5L238 191V188.5L237 186.5H233L231 189L228.5 191L225 192H223L220 189.5L219 188L218 184.5L216 181L217.5 179.5L219.5 178L222 174L219.5 170V166.5L222 165L226.5 172L229 173L232.5 167.5V164.5L234.5 163L238.5 165L242 163V156.5H244.5L248.5 160.5L250.5 159.5H255L257 164.5L250.5 171L249.5 169H243L242 182.5L245.5 184.5L251.5 183L263 174V179.5L260.5 184.5L263 188V195L265.5 196L272 195L276.5 193.5H282.5L284.5 195L285.5 193.5H288L289 195H305L315 187L317 182.5L315.5 177L315 170.5L314 163L317 160V153L322 145.5L323 141L328.5 135L330 136.5V186.5L339 196L340 200.5L338 203L343 208L349 205L353 208H366.5L369.5 206H373.5L370 211V214L373.5 218L382 219L385.5 220.5L391 225L393 227.5H398L407.5 234L423 237.5L427.5 239.5L431 243L434 245H488L482.5 249L480 251.5V258.5L482 261L482.5 265V274L465.5 294.5V301L458.5 309.5L454 310.5L451 313L452.5 318L450.5 322L451 326L452.5 328L453.5 331.5V334L447 329C445.5 328.667 442.4 328 442 328C441.6 328 440.5 327.333 440 327L434.5 324L427 317.5H424H420.5V322L419 324.5L416.5 323L412 322.5L403 315.5H399L396.5 318.5L395.5 323L394.5 325.5L389 326L378 334.5L373.5 335H370L369.5 337L370 340.5L368 342L366 341L364.5 339L362.5 337L360 338Z" stroke="black"/>
<path id="puntarenas" d="M144.5 229.5L147 232L149 234.5L149.5 239.5L153 243L156.5 244L158.5 244.5L162 246.5L166 245L167.5 244H170V247.5L172 249L174.5 250L177.5 252.5L184 253L187.5 252.5L189.5 255L195 256.5L190 260.5V264L192.5 266L191.5 268L190 270L194 273H198L199.5 274L197.5 277.5L194 279L189.5 284L187 285.5V289.5L181 287.5L178 288.5L175 291.5V294L176 295.5L174.5 296L170 297L168.5 300L165.5 302.5V308.5L162 312V314L160.5 319L158.5 319.5L156.5 316V313L152 310L149.5 302.5L145 297L141.5 291.5L136.5 286L141 281.5L142 276L138 273L141 268.5L142 266.5L135 258.5L128 256.5L125.5 253.5L125 247L128 245.5H141.5L144.5 243.5V236.5L141 231.5L144.5 229.5ZM144.5 229.5L134.5 221V212L133 206L137.5 202.5L140.5 204.5L147 207.5L153.5 208.5L156 206.5L159.5 207L162 209.5M162 209.5H166.5L167 205.5L172 204.5L176.5 207L186.5 218L188.5 215.5L190 208.5L196 207L197.5 204.5V196L200 190L205 184V177.5L200.5 176L192 171H189.5L185.5 175.5L181 176L175 174.5L171 168.5V158L173.5 155.5L182.5 160.5H196.5L200 167.5L202.5 166.5H204.5L206 169L209 170.5L212.5 178.5L216.5 180L216 181L218 184L219 188.5L222 190.5L223 192L225.5 191.5L228.5 191L232 188L233 186.5H237L238 188.5V191.5L238.5 194L239.5 196L239 214L240.5 219L245 227.5L245.5 230.5L247 232L250.5 232.5L255 235L258 241.5L257 244H251.5L250.5 248L245.5 252.5L242 253.5L237 257.5L235.5 262V263.5L232 262L229 258.5L231 253.5L228 249.5L226.5 244.5L212 243L198.5 236L175.5 214.5L162 212V209.5Z" stroke="black" stroke-linejoin="round"/>
<path id="central_pacific" d="M242 263.5H235.5L244.5 279.5L246 285L244.5 289.5L240.5 295V300.5L243.5 304.5L246 309.5L266 329L273 327L286 329H289L303.5 333.5L308.5 334L314.5 337.5H321L325 340L332.5 343.5L334 348L338 352.5L344 356L351 357.5L358 363H366L373 368.5L383 374.5L386 375.5V365.5L387.5 363.5L389 362L388.5 360L386.5 359.5L378.5 354L377.5 349L375 348.5L372.5 351.5L369.5 353L368.5 352L368 347.5L359.5 341L349 335V332.5L347.5 330.5V320.5H336V313L334 310H313.5L305 308.5L301.5 306L299 308.5H296L293.5 306L290.5 306.5L288.5 306L287 308.5V317.5L283.5 320.5H280.5L277 318.5H267L262.5 315L259.5 308.5L255 302V293L257 289.5L260.5 287V283L258 277L255 273L257 269.5L255 266.5L249.5 265.5L244.5 266.5L242 263.5Z" stroke="black"/>
<path id="south_pacific" d="M386 365.5V375.5L407 393V398H410L420.5 404.5L423.5 410L426.5 412.5L430.5 420V433L432 434.5V440.5L434.5 443L437.5 445L435 448.5L437 450.5V454.5L428.5 463V465L429.5 473.5L428.5 479L426.5 483L422.5 482H419L416.5 485.5V490L414 493.5L412 498.5L412.5 501.5C415.333 502.667 420.9 504.8 420.5 504C420.1 503.2 422 506.333 423 508L425.5 510L441 526L445 527.5L461 528.5L475 532.5L493.5 541L494.5 539L493.5 533L495 532L496 529L493 522L492 512L488.5 510.5L483.5 505.5L479.5 504H476.5L471 500L467 496L464 493L467 491.5V489.5L464 487.5L459 486L457 484V479L460.5 476L465 475.5L469 478.5L478 473L483 475.5L485 474.5L487.5 476L488.5 483L494 488.5H502L502.5 491.5H508.5L514.5 495.5L515 499.5L522.5 508L521 510V513L525.5 517.5L531 525.5L530 531L522 539V542.5L527.5 546.5L533.5 552L540 556L542.5 560L547.5 561L552.5 565L564.5 586L566.5 591L564.5 593V597L563.5 599.5L564.5 601L566.5 601.5L568 601V592.5L566.5 587L564 580.5V576L563 575H560.5L559.5 571L559 566.5L556 563L554 561L547 558.5L545.5 555.5L542 554.5L538 551.5L537.5 548L541 545.5H544.5L561 531L570.5 529.5L576.5 520V513L575.5 510L578.5 507L579 503.5L577.5 501.5L577 493L575.5 492L570.5 482.5L562.5 477V468.5H565.5L571.5 461L568 457.5V454.5L572 454L576 451.5H579L581.5 448H589L593.5 442L598.5 440.5V435.5L592.5 429L588.5 426.5L584 425L569.5 416.5L568.5 412.5L565.5 410L563 412L559 411.5L554.5 407H549L547.5 404.5L544.5 401L545.5 399.5L546 396.5L541 393.5L539 395.5L537 396.5L534 393L532.5 389.5L534 386.5L532.5 384L531.5 379.5L514.5 367.5L513.5 364L511.5 363L504 367.5L499 361L493 361.5L486.5 354L479 361.5H471.5L466.5 357L462.5 355L456.5 345L456 339L454 334L447 329L441.5 328L434.5 324L427 317.5H420.5V322L419 324.5L416.5 323L412 322.5L403 315.5H399L396.5 318.5L395.5 322.5L394.5 325.5L389 326L378 334.5L373.5 335H370L369.5 337L370 340.5L368 342L366 341L364.5 339L362.5 337L360 338L359.5 341L368 347.5L368.5 352L369.5 353L372.5 351.5L375 348.5L377.5 349L378.5 354L386.5 359.5L388.5 360L389 362L386 365.5Z" stroke="black"/>
</g>
<defs>
<clipPath id="clip0">
<rect width="639" height="602" fill="white"/>
</clipPath>
</defs>
</svg>
